<svg width="42" height="52" viewBox="0 0 42 52" fill="none" xmlns="http://www.w3.org/2000/svg">
<path d="M20.8493 9.52112C9.69314 9.52112 0.649292 18.391 0.649292 29.3327V48.5615C0.649292 50.1706 1.97927 51.475 3.61988 51.475H8.96694C12.5592 51.475 14.355 49.3798 16.0242 46.7186C18.5122 42.7521 23.1864 42.7521 25.6744 46.7186C27.3436 49.3798 29.1394 51.475 32.7316 51.475H38.0787C39.7193 51.475 41.0493 50.1706 41.0493 48.5615V29.3327C41.0493 18.391 32.0054 9.52112 20.8493 9.52112Z" fill="url(#paint0_linear_40_903)"/>
<ellipse cx="20.8493" cy="27.3903" rx="8.54615" ry="7.76923" fill="white"/>
<circle cx="25.1224" cy="27.0019" r="2.71923" fill="#221B43"/>
<rect x="9.19545" y="5.63647" width="2.33077" height="10.1" fill="#AFF860"/>
<rect x="30.9493" y="5.63647" width="2.33077" height="10.1" fill="#AFF860"/>
<circle cx="10.3608" cy="4.47113" r="3.49615" fill="#AFF860"/>
<circle cx="32.4962" cy="4.47113" r="3.49615" fill="#AFF860"/>
<defs>
<linearGradient id="paint0_linear_40_903" x1="20.8493" y1="9.52112" x2="20.8493" y2="51.475" gradientUnits="userSpaceOnUse">
<stop stop-color="#F2843F"/>
<stop offset="1" stop-color="#FFD81E"/>
</linearGradient>
</defs>
</svg>
