<svg width="205" height="25" viewBox="0 0 205 25" fill="none" xmlns="http://www.w3.org/2000/svg">
<path d="M9.62324 1.16C11.3832 1.16 12.7232 1.62 13.6432 2.54C14.9032 3.86 15.5332 5.46 15.5332 7.34C15.5332 8.02 15.4432 8.74 15.2632 9.5C14.5232 12.9 12.7332 15.9 9.89324 18.5C7.09324 21.06 3.93324 22.57 0.413242 23.03C0.413242 22.91 0.623242 21.63 1.04324 19.19L3.38324 5.72C3.64324 4.08 3.81324 2.94 3.89324 2.3C6.17324 1.54 8.08324 1.16 9.62324 1.16ZM6.05324 17.99C7.21324 16.89 8.30324 15.53 9.32324 13.91C10.3632 12.29 10.8832 10.82 10.8832 9.5C10.8832 7.82 9.95324 7.03 8.09324 7.13C7.23324 10.79 6.55324 14.41 6.05324 17.99ZM22.343 6.68C22.143 7.44 22.003 8 21.923 8.36L21.623 9.95L26.303 8.96L26.033 13.01C23.573 13.45 21.823 13.79 20.783 14.03C20.723 14.29 20.653 14.68 20.573 15.2L20.393 16.34L25.823 15.56L25.463 21.02C22.583 21.26 19.013 21.93 14.753 23.03L18.233 2.03L28.013 0.619998L27.623 6.05C25.683 6.23 23.923 6.44 22.343 6.68ZM38.4336 0.919998C39.7536 0.919998 40.7336 1.15 41.3736 1.61C42.0336 2.05 42.3536 2.73 42.3336 3.65C42.2736 7.33 39.1736 11.15 33.0336 15.11C32.5936 17.61 32.2736 19.82 32.0736 21.74L27.4236 23.03C27.5436 22.17 27.7736 20.86 28.1136 19.1L29.4036 12.17C30.5436 5.77 31.0736 2.48 30.9936 2.3C33.9936 1.38 36.4736 0.919998 38.4336 0.919998ZM37.6236 7.01C37.6236 6.67 37.3736 6.5 36.8736 6.5C36.4736 6.5 35.7436 6.66 34.6836 6.98C34.6236 7.2 34.5536 7.52 34.4736 7.94C34.3936 8.34 34.3436 8.57 34.3236 8.63L33.9936 10.22C35.7736 9.34 36.9436 8.39 37.5036 7.37C37.5836 7.23 37.6236 7.11 37.6236 7.01ZM51.7348 0.0799983C53.7748 0.0799983 55.2348 1.24 56.1148 3.56C56.5748 4.78 56.8048 6.08 56.8048 7.46C56.8048 8.86 56.5948 10.35 56.1748 11.93C55.4548 14.65 54.2048 17.17 52.4248 19.49C50.2848 22.29 47.9948 23.69 45.5548 23.69C43.4348 23.69 41.9448 22.54 41.0848 20.24C40.6648 19.1 40.4548 17.83 40.4548 16.43C40.4548 15.05 40.6648 13.55 41.0848 11.93C41.8048 9.17 43.0448 6.64 44.8048 4.34C46.9848 1.5 49.2948 0.0799983 51.7348 0.0799983ZM45.2548 15.98C45.2548 16.8 45.4748 17.47 45.9148 17.99C46.3548 18.51 46.9548 18.77 47.7148 18.77C48.7948 18.77 49.7248 18.26 50.5048 17.24C51.3048 16.22 51.8648 15.07 52.1848 13.79C52.5448 12.31 52.6248 10.87 52.4248 9.47C52.1848 8.07 51.6048 7.37 50.6848 7.37C49.9848 7.37 49.2548 7.79 48.4948 8.63C47.7348 9.45 47.1048 10.36 46.6048 11.36C46.1048 12.36 45.7448 13.26 45.5248 14.06C45.3448 14.74 45.2548 15.38 45.2548 15.98ZM64.3768 15.32C64.0768 15.32 63.2768 15.44 61.9768 15.68C60.6768 15.9 59.8768 16.01 59.5768 16.01C58.6568 16.01 57.9768 15.76 57.5368 15.26C57.0768 14.76 56.8968 14.08 56.9968 13.22C57.2368 11.04 58.6268 8.53 61.1668 5.69C63.7468 2.79 65.9868 1.26 67.8868 1.1C69.7068 0.979999 70.6168 2.34 70.6168 5.18C70.6168 5.76 70.5668 6.53 70.4668 7.49C70.2868 7.55 69.9468 7.68 69.4468 7.88C68.9668 8.08 68.5668 8.24 68.2468 8.36L66.0268 9.2C66.0268 8.28 65.7768 7.82 65.2768 7.82C64.6768 7.82 64.0268 8.15 63.3268 8.81C62.6468 9.47 62.3568 10.14 62.4568 10.82C62.5168 11.18 62.8868 11.36 63.5668 11.36C63.9068 11.36 64.5268 11.29 65.4268 11.15C66.3268 11.01 66.9368 10.94 67.2568 10.94C68.3168 10.94 69.0768 11.16 69.5368 11.6C70.0168 12.04 70.2568 12.75 70.2568 13.73C70.2568 14.97 69.7868 16.32 68.8468 17.78C67.6468 19.66 65.9468 21.25 63.7468 22.55C62.5868 23.25 61.4568 23.6 60.3568 23.6C59.3568 23.6 58.3568 23.31 57.3568 22.73C57.8768 21.49 58.6568 19.76 59.6968 17.54C60.3568 17.98 61.0268 18.2 61.7068 18.2C62.4668 18.2 63.2968 17.98 64.1968 17.54C65.1168 17.08 65.5768 16.59 65.5768 16.07C65.5768 15.57 65.1768 15.32 64.3768 15.32ZM75.4346 2.33L80.4746 1.37C78.4546 9.11 77.1246 15.9 76.4846 21.74L71.8046 23.03L75.4346 2.33ZM93.9085 1.1L93.7585 6.53C92.0985 6.63 90.7985 6.73 89.8585 6.83C88.5785 12.23 87.7085 17.2 87.2485 21.74L82.2985 23.03L84.9985 7.43C84.8185 7.45 84.5485 7.49 84.1885 7.55C83.8485 7.61 83.5885 7.66 83.4085 7.7L81.8485 8L81.4885 2.51L93.9085 1.1ZM97.3526 23.39C100.213 16.13 102.533 9.07 104.313 2.21L113.223 0.709999C112.203 6.57 111.743 13.57 111.843 21.71L105.633 23.15L106.083 19.49L104.103 19.88L103.503 22.43L97.3526 23.39ZM106.533 15.56L107.883 4.49H107.853L105.123 15.83L106.533 15.56ZM122.296 3.95C122.296 6.61 122.386 8.95 122.566 10.97C122.666 12.21 122.806 13.13 122.986 13.73L124.996 2.33L130.036 1.37C128.016 9.11 126.686 15.9 126.046 21.74L121.426 23.03L121.036 22.01L119.506 17.66C119.206 16.82 119.056 16.37 119.056 16.31C118.696 18.33 118.376 20.57 118.096 23.03L113.416 24.44L117.286 2.39L122.356 1.37C122.316 2.17 122.296 3.03 122.296 3.95ZM137.838 1.16C139.598 1.16 140.938 1.62 141.858 2.54C143.118 3.86 143.748 5.46 143.748 7.34C143.748 8.02 143.658 8.74 143.478 9.5C142.738 12.9 140.948 15.9 138.108 18.5C135.308 21.06 132.148 22.57 128.628 23.03C128.628 22.91 128.838 21.63 129.258 19.19L131.598 5.72C131.858 4.08 132.028 2.94 132.108 2.3C134.388 1.54 136.298 1.16 137.838 1.16ZM134.268 17.99C135.428 16.89 136.518 15.53 137.538 13.91C138.578 12.29 139.098 10.82 139.098 9.5C139.098 7.82 138.168 7.03 136.308 7.13C135.448 10.79 134.768 14.41 134.268 17.99ZM161.639 0.919998C162.959 0.919998 163.939 1.15 164.579 1.61C165.239 2.05 165.559 2.73 165.539 3.65C165.479 7.33 162.379 11.15 156.239 15.11C155.799 17.61 155.479 19.82 155.279 21.74L150.629 23.03C150.749 22.17 150.979 20.86 151.319 19.1L152.609 12.17C153.749 5.77 154.279 2.48 154.199 2.3C157.199 1.38 159.679 0.919998 161.639 0.919998ZM160.829 7.01C160.829 6.67 160.579 6.5 160.079 6.5C159.679 6.5 158.949 6.66 157.889 6.98C157.829 7.2 157.759 7.52 157.679 7.94C157.599 8.34 157.549 8.57 157.529 8.63L157.199 10.22C158.979 9.34 160.149 8.39 160.709 7.37C160.789 7.23 160.829 7.11 160.829 7.01ZM166.96 2.33L172 1.37C170.6 6.73 169.52 11.72 168.76 16.34L173.89 15.56L173.47 21.02C170.77 21.26 167.4 21.93 163.36 23.03L166.96 2.33ZM172.635 23.39C175.495 16.13 177.815 9.07 179.595 2.21L188.505 0.709999C187.485 6.57 187.025 13.57 187.125 21.71L180.915 23.15L181.365 19.49L179.385 19.88L178.785 22.43L172.635 23.39ZM181.815 15.56L183.165 4.49H183.135L180.405 15.83L181.815 15.56ZM199.798 1.88L204.508 2.69C200.308 10.07 196.968 16.77 194.488 22.79L189.988 22.49L193.078 15.98L190.618 4.19L196.348 1.55C196.148 4.37 196.178 6.84 196.438 8.96L199.798 1.88Z" fill="#05071A"/>
</svg>
