<svg width="65" height="94" viewBox="0 0 65 94" fill="none" xmlns="http://www.w3.org/2000/svg">
<path d="M15.2987 26.5447C15.5376 26.6709 15.766 26.8138 15.9782 26.9698C16.7272 27.5205 17.2 28.178 17.2981 28.7638L17.3001 28.7761L17.3028 28.7882C17.4991 29.6843 17.4508 30.7204 17.3851 31.7255C17.2886 32.4605 17.3693 33.1397 17.6537 33.6906C17.9466 34.2579 18.4393 34.6542 19.0805 34.8174L19.0971 34.8217L19.114 34.8248C19.8727 34.9634 20.7382 34.8271 21.506 34.5116C22.2701 34.1976 22.9944 33.6826 23.4436 32.9994C24.5937 31.4099 24.4386 29.6772 23.8777 28.1917L23.8777 28.1917L23.8762 28.1877C23.0035 25.9351 22.1254 23.5799 21.3954 21.3266C20.726 18.8521 21.5134 16.5819 22.9746 14.3657C22.5803 15.4607 22.4377 16.6407 22.8396 17.8973L22.8452 17.9149L22.8521 17.932C23.6347 19.872 25.6249 21.0621 27.9252 20.8887C29.2701 20.7874 30.5243 20.3399 31.474 19.6799C32.4147 19.0262 33.1142 18.1193 33.2112 17.0836C33.4627 14.4924 32.6753 11.9632 30.732 9.99575C29.1072 8.35064 29.0379 6.60846 29.1478 4.5853C29.2379 5.20632 29.3674 5.82847 29.6019 6.44971L29.6075 6.46448L29.614 6.47887C30.0175 7.37233 31.0368 8.26167 32.1282 8.76994L32.1311 8.77126C36.01 10.5479 38.5577 12.8988 39.2011 16.1554C39.4157 17.5027 39.0141 18.9046 38.598 20.3576C38.5506 20.523 38.503 20.6891 38.4562 20.8558C38.2384 21.5625 37.95 22.2533 37.6507 22.9526C37.6228 23.0179 37.5947 23.0833 37.5666 23.1488C37.2974 23.7766 37.0234 24.4154 36.8077 25.0512C36.5632 25.706 36.4604 26.3298 36.7505 26.8731C37.0317 27.3997 37.6055 27.6974 38.2697 27.9294L38.2728 27.9305C39.9632 28.5083 41.6162 28.3319 42.5794 27.1634C43.3376 26.2813 43.8175 25.3347 43.9615 24.3397C44.1064 23.3388 43.9051 22.3302 43.3688 21.3431L43.3619 21.3304L43.3543 21.3181C42.7009 20.2654 42.5648 19.245 42.7717 18.2283C42.8556 17.8157 42.997 17.3996 43.1881 16.9797C43.1837 17.0961 43.1974 17.2289 43.2525 17.3637C43.2786 17.4782 43.3055 17.6103 43.3342 17.7517C43.398 18.0656 43.471 18.4249 43.5662 18.737C43.7198 19.2401 43.9675 19.7769 44.4543 20.1708C45.8959 21.3375 46.6882 22.5384 46.9715 23.7745C47.2548 25.0104 47.0455 26.3522 46.3488 27.8319L46.3425 27.8454L46.337 27.8592C46.3084 27.9307 46.2794 28.0026 46.2503 28.0749C45.6968 29.4492 45.0856 30.9665 45.8271 32.6084L45.8325 32.6204L45.8385 32.632C45.8613 32.6763 45.8868 32.7288 45.9152 32.7874C46.05 33.0654 46.2511 33.4801 46.552 33.7934C47.1393 34.5192 47.8134 35.0143 48.5648 35.2217C49.3272 35.4322 50.1134 35.331 50.883 34.9616C51.7199 34.5881 52.3542 33.9963 52.6507 33.267C52.9394 32.557 52.8851 31.7697 52.4627 31.0379C52.7728 31.2304 53.0165 31.4452 53.2083 31.6743C53.6455 32.1967 53.8549 32.8439 53.9117 33.5993C53.9142 33.6317 53.9181 33.6773 53.923 33.7353C53.978 34.3757 54.1632 36.5346 53.9395 39.2773C53.7026 42.1824 53.0096 45.6998 51.2482 48.7338L11.3042 41.9947C11.1321 41.4245 10.8594 40.2379 10.6942 39.0174C10.5967 38.2965 10.5407 37.5913 10.5614 37.0187C10.5718 36.7322 10.6009 36.4943 10.6469 36.3115C10.6947 36.121 10.7496 36.0352 10.778 36.0056L10.7857 35.9976L10.7931 35.9892C11.2537 35.4636 11.8594 35.0902 12.5455 34.6724L12.5738 34.6551C13.2283 34.2566 13.9574 33.8126 14.5274 33.1634C15.5235 32.0584 15.8752 30.92 15.8874 29.7812C15.8992 28.6842 15.5937 27.5957 15.3112 26.5894L15.3016 26.5552L15.2987 26.5447Z" fill="#E11717" stroke="#E11717"/>
<path d="M32.5 90.0878C48.7947 90.0878 62 76.868 62 60.5659C62 44.2637 48.7947 31.0439 32.5 31.0439C16.2053 31.0439 3 44.2637 3 60.5659C3 76.868 16.2053 90.0878 32.5 90.0878Z" fill="#FFC7C7"/>
<path d="M32.5 90.0878C48.7947 90.0878 62 76.868 62 60.5659C62 44.2637 48.7947 31.0439 32.5 31.0439C16.2053 31.0439 3 44.2637 3 60.5659C3 76.868 16.2053 90.0878 32.5 90.0878Z" fill="url(#paint0_linear_40_924)"/>
<path d="M32.5 90.0878C48.7947 90.0878 62 76.868 62 60.5659C62 44.2637 48.7947 31.0439 32.5 31.0439C16.2053 31.0439 3 44.2637 3 60.5659C3 76.868 16.2053 90.0878 32.5 90.0878Z" stroke="#E11717" stroke-width="6"/>
<rect x="20.9643" y="52.3259" width="21.1291" height="2.74684" rx="1.37342" fill="#4E3535"/>
<rect x="20.9643" y="66.0591" width="15.8468" height="2.74684" rx="1.37342" fill="#4E3535"/>
<rect x="20.9643" y="59.1912" width="26.4114" height="2.74683" rx="1.37341" fill="#4E3535"/>
<defs>
<linearGradient id="paint0_linear_40_924" x1="32.5" y1="34.0439" x2="32.5" y2="87.0878" gradientUnits="userSpaceOnUse">
<stop stop-color="#FFF1BD"/>
<stop offset="1" stop-color="#FFCDB0"/>
</linearGradient>
</defs>
</svg>
