<svg width="68" height="37" viewBox="0 0 68 37" fill="none" xmlns="http://www.w3.org/2000/svg">
<path d="M7.14845 0.407226C7.98541 0.407226 8.61312 0.55306 9.0316 0.844726C9.45008 1.12371 9.65298 1.55487 9.6403 2.1382C9.62762 3.81212 8.57508 5.49237 6.48269 7.17897C6.63486 7.61013 7.35135 9.09382 8.63215 11.6301C8.3912 11.8456 7.92834 12.2641 7.24356 12.8855C6.55878 13.4942 6.05153 13.9444 5.72182 14.236L3.74356 9.11918H3.72454C3.42019 10.7297 3.19193 12.2261 3.03975 13.6083L0.110407 14.4262C0.123088 14.2614 0.262581 13.4371 0.528885 11.9534L2.37399 1.28223C4.28885 0.698893 5.88033 0.407226 7.14845 0.407226ZM6.50171 4.34473C6.50171 4.06574 6.32417 3.92625 5.9691 3.92625C5.67744 3.92625 5.25896 4.02136 4.71367 4.21157L4.42834 5.46701L4.16204 6.74147C4.60588 6.5132 5.04972 6.20252 5.49356 5.8094C5.95008 5.4036 6.25443 5.01683 6.4066 4.64907C6.47001 4.52226 6.50171 4.42081 6.50171 4.34473ZM14.385 4.0594C14.2582 4.54128 14.1695 4.89636 14.1187 5.12462L13.9285 6.13277L16.8959 5.50505L16.7247 8.07299C15.1649 8.35197 14.0553 8.56755 13.3959 8.71973C13.3579 8.88458 13.3135 9.13186 13.2627 9.46157L13.1486 10.1844L16.5916 9.68984L16.3633 13.1518C14.5372 13.304 12.2736 13.7288 9.57253 14.4262L11.7791 1.11103L17.9801 0.217009L17.7329 3.65994C16.5028 3.77407 15.3868 3.90723 14.385 4.0594ZM21.6961 9.67081C21.6961 10.1907 21.8292 10.6346 22.0955 11.0023C22.3618 11.3574 22.7423 11.5349 23.2368 11.5349C23.8709 11.5349 24.543 11.0531 25.2531 10.0893L25.8618 12.3148C24.6571 13.6717 23.408 14.3502 22.1145 14.3502C20.8211 14.3502 19.8827 13.6717 19.2993 12.3148C18.9443 11.5286 18.7667 10.6409 18.7667 9.65179C18.7667 8.87824 18.8555 8.11737 19.033 7.36918C19.4135 5.73331 20.1236 4.2306 21.1635 2.86103C22.4189 1.21248 23.7758 0.388205 25.2341 0.388205C26.5276 0.388205 27.4787 1.08567 28.0874 2.4806L25.976 4.78223C25.697 4.49056 25.3736 4.34473 25.0059 4.34473C24.3464 4.34473 23.6616 4.90904 22.9515 6.03766C22.3809 6.93802 22.0068 7.80034 21.8292 8.62462C21.7405 8.97969 21.6961 9.32842 21.6961 9.67081ZM32.53 4.0594C32.4032 4.54128 32.3144 4.89636 32.2637 5.12462L32.0735 6.13277L35.0409 5.50505L34.8697 8.07299C33.3099 8.35197 32.2003 8.56755 31.5409 8.71973C31.5028 8.88458 31.4584 9.13186 31.4077 9.46157L31.2936 10.1844L34.7365 9.68984L34.5082 13.1518C32.6822 13.304 30.4186 13.7288 27.7175 14.4262L29.924 1.11103L36.1251 0.217009L35.8778 3.65994C34.6477 3.77407 33.5318 3.90723 32.53 4.0594ZM42.2378 2.32842C42.2378 4.01502 42.2948 5.49871 42.409 6.77951C42.4724 7.56574 42.5611 8.14907 42.6753 8.52951L43.9497 1.30125L47.1454 0.692553C45.8646 5.60016 45.0213 9.90541 44.6155 13.6083L41.6861 14.4262L41.4388 13.7795L40.4687 11.0214C40.2785 10.4887 40.1834 10.2034 40.1834 10.1654C39.9552 11.4462 39.7523 12.8665 39.5747 14.4262L36.6073 15.3203L39.0611 1.33929L42.2758 0.692553C42.2504 1.1998 42.2378 1.74509 42.2378 2.32842ZM56.2583 0.521357L56.1632 3.96429C55.1106 4.0277 54.2863 4.0911 53.6903 4.15451C52.8787 7.57842 52.3271 10.7297 52.0354 13.6083L48.8969 14.4262L50.6088 4.53494C50.4947 4.54763 50.3235 4.57299 50.0952 4.61103C49.8796 4.64907 49.7148 4.68078 49.6007 4.70614L48.6115 4.89636L48.3833 1.41538L56.2583 0.521357Z" fill="white"/>
<path d="M13.7109 21.5784C12.0497 25.9661 10.807 30.2904 9.98269 34.5512L5.81693 35.2551L6.50171 28.4453L4.77073 34.7605L0.814211 35.4833C1.41023 30.7279 1.70189 26.4543 1.68921 22.6627L5.22725 21.9969L4.50443 30.1382L6.90117 21.1029L8.80334 20.8176L7.52889 32.2877L10.0968 22.1491L13.7109 21.5784ZM15.7305 22.3012L18.9262 21.6926C17.6454 26.6002 16.8021 30.9054 16.3963 34.6083L13.4289 35.4262L15.7305 22.3012ZM24.743 23.3284C24.743 25.015 24.8 26.4987 24.9142 27.7795C24.9776 28.5657 25.0663 29.1491 25.1805 29.5295L26.4549 22.3012L29.6506 21.6926C28.3698 26.6002 27.5265 30.9054 27.1207 34.6083L24.1913 35.4262L23.9441 34.7795L22.9739 32.0214C22.7837 31.4887 22.6886 31.2034 22.6886 31.1654C22.4604 32.4462 22.2575 33.8665 22.0799 35.4262L19.1125 36.3203L21.5663 22.3393L24.781 21.6926C24.7556 22.1998 24.743 22.7451 24.743 23.3284ZM35.3015 23.3284C35.3015 25.015 35.3586 26.4987 35.4727 27.7795C35.5361 28.5657 35.6249 29.1491 35.739 29.5295L37.0135 22.3012L40.2091 21.6926C38.9283 26.6002 38.085 30.9054 37.6792 34.6083L34.7499 35.4262L34.5026 34.7795L33.5325 32.0214C33.3423 31.4887 33.2472 31.2034 33.2472 31.1654C33.0189 32.4462 32.816 33.8665 32.6385 35.4262L29.6711 36.3203L32.1249 22.3393L35.3396 21.6926C35.3142 22.1998 35.3015 22.7451 35.3015 23.3284ZM44.909 25.0594C44.7822 25.5413 44.6934 25.8964 44.6427 26.1246L44.4525 27.1328L47.4199 26.5051L47.2487 29.073C45.6889 29.352 44.5793 29.5676 43.9199 29.7197C43.8818 29.8846 43.8374 30.1319 43.7867 30.4616L43.6726 31.1844L47.1155 30.6898L46.8872 34.1518C45.0612 34.304 42.7976 34.7288 40.0965 35.4262L42.303 22.111L48.5041 21.217L48.2568 24.6599C47.0267 24.7741 45.9108 24.9072 44.909 25.0594ZM55.9102 21.4072C56.7472 21.4072 57.3749 21.5531 57.7934 21.8447C58.2119 22.1237 58.4148 22.5549 58.4021 23.1382C58.3894 24.8121 57.3369 26.4924 55.2445 28.179C55.3966 28.6101 56.1131 30.0938 57.3939 32.6301C57.153 32.8456 56.6901 33.2641 56.0053 33.8855C55.3206 34.4942 54.8133 34.9444 54.4836 35.236L52.5053 30.1192H52.4863C52.182 31.7297 51.9537 33.2261 51.8015 34.6083L48.8722 35.4262C48.8849 35.2614 49.0244 34.4371 49.2907 32.9534L51.1358 22.2822C53.0506 21.6989 54.6421 21.4072 55.9102 21.4072ZM55.2635 25.3447C55.2635 25.0657 55.086 24.9262 54.7309 24.9262C54.4392 24.9262 54.0207 25.0214 53.4754 25.2116L53.1901 26.467L52.9238 27.7415C53.3677 27.5132 53.8115 27.2025 54.2553 26.8094C54.7119 26.4036 55.0162 26.0168 55.1684 25.6491C55.2318 25.5223 55.2635 25.4208 55.2635 25.3447ZM63.4892 30.5377C63.299 30.5377 62.7917 30.6137 61.9675 30.7659C61.1432 30.9054 60.6359 30.9752 60.4457 30.9752C59.8624 30.9752 59.4312 30.8166 59.1522 30.4996C58.8606 30.1826 58.7465 29.7514 58.8099 29.2061C58.962 27.8239 59.8434 26.2324 61.4539 24.4317C63.0897 22.5929 64.51 21.6228 65.7147 21.5214C66.8687 21.4453 67.4457 22.3076 67.4457 24.1083C67.4457 24.4761 67.414 24.9643 67.3506 25.573C67.2365 25.611 67.0209 25.6935 66.7039 25.8203C66.3995 25.9471 66.1459 26.0485 65.943 26.1246L64.5354 26.6572C64.5354 26.0739 64.3769 25.7822 64.0599 25.7822C63.6794 25.7822 63.2673 25.9915 62.8234 26.4099C62.3923 26.8284 62.2084 27.2532 62.2718 27.6844C62.3099 27.9127 62.5445 28.0268 62.9756 28.0268C63.1912 28.0268 63.5843 27.9824 64.155 27.8936C64.7256 27.8049 65.1124 27.7605 65.3153 27.7605C65.9874 27.7605 66.4693 27.9 66.7609 28.179C67.0653 28.458 67.2175 28.9081 67.2175 29.5295C67.2175 30.3157 66.9195 31.1717 66.3234 32.0974C65.5626 33.2895 64.4847 34.2976 63.0897 35.1219C62.3542 35.5657 61.6378 35.7877 60.9403 35.7877C60.3062 35.7877 59.6722 35.6038 59.0381 35.236C59.3678 34.4498 59.8624 33.3529 60.5218 31.9453C60.9403 32.2243 61.3651 32.3637 61.7963 32.3637C62.2782 32.3637 62.8044 32.2243 63.3751 31.9453C63.9584 31.6536 64.2501 31.3429 64.2501 31.0132C64.2501 30.6962 63.9965 30.5377 63.4892 30.5377Z" fill="#FCC211"/>
</svg>
