<svg width="35" height="33" viewBox="0 0 35 33" fill="none" xmlns="http://www.w3.org/2000/svg">
<path fill-rule="evenodd" clip-rule="evenodd" d="M20.6805 11.3944C22.7321 10.2964 21.7207 6.51116 21.4896 5.75989C28.4073 9.79727 27.8581 22.3503 20.3245 25.9778L20.5938 26.5065C20.8539 26.9977 20.6516 27.5756 20.1893 27.8067L20.0159 27.8934C19.5247 28.1246 18.9468 27.9512 18.7157 27.4889L18.3067 26.6861C18.1655 26.719 18.0225 26.7492 17.8776 26.7766L17.9356 27.46C17.9933 28.009 17.5888 28.4713 17.0687 28.5291H16.8664C16.3463 28.5869 15.884 28.1824 15.8262 27.6622L15.7675 26.9688C15.5628 26.9688 15.3623 26.9653 15.1659 26.9585L15.1038 27.6911C15.046 28.2112 14.5837 28.6158 14.0636 28.558L13.8614 28.5291C13.3412 28.4713 12.9656 28.009 12.9945 27.4889L13.0582 26.7369C12.8932 26.7063 12.7319 26.673 12.5742 26.637L12.2433 27.2866C12.0121 27.7489 11.4342 27.9223 10.943 27.6911L10.7696 27.6045C10.3073 27.3733 10.105 26.7954 10.3651 26.3042L10.5478 25.9455C4.73052 23.184 5.97301 15.7864 5.97301 15.7864C6.05969 16.5377 6.81096 18.0691 7.41775 17.9824C7.13393 13.563 9.15433 12.7563 10.9741 12.0297C11.7481 11.7206 12.4858 11.4261 12.9945 10.8743C17.2709 4.28625 15.1327 0.0675964 15.1327 0.0675964C20.3049 3.65057 20.7383 9.80518 20.6805 11.3944ZM15.4794 21.9121C15.5372 21.9121 15.5661 21.9122 15.595 21.8833C15.7106 21.8255 15.7106 21.681 15.5661 21.5365L15.4505 21.4787C14.9458 21.2579 14.4372 21.0332 13.9136 20.802C12.9986 20.3978 12.0378 19.9734 10.9718 19.5139C10.9429 19.485 10.9429 19.485 10.914 19.485L10.8851 19.4561C10.8418 19.4416 10.7912 19.42 10.7407 19.3983C10.6901 19.3766 10.6395 19.3549 10.5962 19.3405C10.6128 19.4237 10.639 19.4972 10.6638 19.5668C10.682 19.618 10.6995 19.6671 10.7118 19.7161V19.745C10.7118 19.7595 10.719 19.7667 10.7262 19.7739C10.7334 19.7812 10.7407 19.7884 10.7407 19.8028C10.7696 19.8895 10.7985 19.9473 10.8273 20.0051L10.8274 20.0051C10.8851 20.0918 10.914 20.1785 10.9429 20.2651L11.0296 20.4385C11.0498 20.4989 11.084 20.5594 11.1126 20.61C11.125 20.632 11.1364 20.6522 11.1452 20.6697L11.2319 20.843C11.25 20.8975 11.2795 20.9405 11.3062 20.9793C11.3219 21.0023 11.3367 21.0238 11.3475 21.0453C11.4052 21.1031 11.4341 21.132 11.463 21.1898C11.4919 21.2187 11.5136 21.2476 11.5353 21.2765C11.5569 21.3054 11.5786 21.3343 11.6075 21.3631L11.7231 21.4787L11.8676 21.6232C11.8877 21.6635 11.9219 21.6897 11.9506 21.7117C11.963 21.7213 11.9744 21.73 11.9831 21.7388C12.012 21.7677 12.0698 21.8255 12.1276 21.8544C12.1421 21.8688 12.1637 21.8833 12.1854 21.8977C12.2071 21.9122 12.2288 21.9266 12.2432 21.941L12.4166 22.0277C12.4344 22.0456 12.4523 22.0524 12.477 22.0618C12.4922 22.0677 12.5101 22.0745 12.5322 22.0855C12.561 22.1 12.5899 22.1072 12.6188 22.1144C12.6477 22.1216 12.6766 22.1289 12.7055 22.1433C12.721 22.1511 12.7344 22.1588 12.7469 22.166C12.7809 22.1856 12.8077 22.2011 12.85 22.2011C12.9078 22.23 12.9945 22.2589 13.0523 22.2589C13.0812 22.2589 13.1028 22.2661 13.1245 22.2733C13.1462 22.2806 13.1678 22.2878 13.1967 22.2878C13.2834 22.3167 13.3412 22.3167 13.4279 22.3167H13.4279H13.5435H13.8902H13.9191C13.9769 22.3022 14.0419 22.295 14.1069 22.2878C14.1719 22.2806 14.2369 22.2733 14.2947 22.2589C14.3092 22.2589 14.3309 22.2517 14.3525 22.2444C14.3742 22.2372 14.3959 22.23 14.4103 22.23C14.4537 22.2155 14.497 22.2083 14.5403 22.2011C14.5837 22.1939 14.627 22.1867 14.6704 22.1722C14.6993 22.1578 14.7282 22.1505 14.7571 22.1433C14.786 22.1361 14.8148 22.1289 14.8437 22.1144L15.1038 22.0277C15.1616 22.0277 15.2194 21.9988 15.2772 21.9699C15.3639 21.9699 15.4216 21.941 15.4794 21.9121ZM21.9086 19.8462C21.9158 19.8317 21.923 19.8173 21.923 19.8028C21.9808 19.6872 22.0097 19.5717 22.0097 19.5428C21.9409 19.56 21.8824 19.5874 21.828 19.6128C21.791 19.6302 21.7559 19.6466 21.7207 19.6583L21.6918 19.6872C21.6752 19.7039 21.6682 19.7109 21.6597 19.7139C21.6534 19.7161 21.6463 19.7161 21.634 19.7161C20.5681 20.1756 19.6074 20.6 18.6924 21.0041C18.1688 21.2354 17.6602 21.4601 17.1553 21.681L17.0398 21.7388C16.9242 21.7677 16.9242 21.9122 17.0398 21.9699C17.0736 21.9699 17.0975 21.9799 17.1174 21.9881C17.1314 21.9939 17.1434 21.9988 17.1553 21.9988C17.1933 22.0115 17.2258 22.0186 17.2551 22.025C17.2927 22.0333 17.3251 22.0404 17.3576 22.0566C17.3865 22.0711 17.4154 22.0783 17.4443 22.0855C17.4732 22.0927 17.5021 22.1 17.531 22.1144L17.791 22.2011C17.8488 22.23 17.9066 22.2589 17.9644 22.2589C18.0077 22.2733 18.0511 22.2806 18.0944 22.2878C18.1378 22.295 18.1811 22.3022 18.2244 22.3167C18.2389 22.3167 18.2606 22.3239 18.2822 22.3311C18.3039 22.3384 18.3256 22.3456 18.34 22.3456C18.4556 22.3745 18.6001 22.4034 18.7157 22.4034H18.7446H19.0913H19.2069C19.2502 22.4034 19.2863 22.3961 19.3225 22.3889C19.3586 22.3817 19.3947 22.3745 19.438 22.3745C19.4669 22.3745 19.4886 22.3672 19.5103 22.36C19.5319 22.3528 19.5536 22.3456 19.5825 22.3456C19.6114 22.3311 19.6475 22.3239 19.6836 22.3167C19.7198 22.3095 19.7559 22.3022 19.7848 22.2878C19.8137 22.2733 19.8353 22.2661 19.857 22.2589C19.8787 22.2517 19.9004 22.2444 19.9292 22.23C19.987 22.23 20.0448 22.2011 20.1026 22.1722C20.1315 22.1722 20.1893 22.1433 20.2182 22.1144L20.3916 22.0277C20.406 22.0133 20.4277 21.9988 20.4494 21.9844C20.471 21.9699 20.4927 21.9555 20.5071 21.941C20.536 21.9266 20.5577 21.9049 20.5794 21.8833C20.6011 21.8616 20.6227 21.8399 20.6516 21.8255C20.6718 21.7852 20.706 21.7589 20.7346 21.7369C20.7471 21.7274 20.7585 21.7186 20.7672 21.7099L20.9117 21.5654L21.0273 21.4498L21.0273 21.4498C21.0851 21.392 21.1428 21.3342 21.1717 21.2765C21.2295 21.2187 21.2584 21.1898 21.2873 21.132C21.3054 21.0776 21.335 21.0345 21.3616 20.9958C21.3774 20.9728 21.3921 20.9512 21.4029 20.9297L21.4896 20.7564C21.504 20.713 21.5257 20.6769 21.5474 20.6408C21.569 20.6047 21.5907 20.5685 21.6052 20.5252L21.6918 20.3518C21.7496 20.2651 21.7785 20.1785 21.8074 20.0918C21.8219 20.0629 21.8363 20.0268 21.8508 19.9906C21.8652 19.9545 21.8797 19.9184 21.8941 19.8895C21.8941 19.8751 21.9013 19.8606 21.9086 19.8462ZM12.7056 5.00866C12.7056 5.00866 12.7634 7.34914 10.9141 8.85168C9.06484 10.3542 9.98948 11.6834 9.98948 11.6834C9.98948 11.6834 9.09373 10.701 9.15152 8.79389C9.19509 7.33433 11.1931 6.03902 12.1738 5.40322C12.4939 5.19569 12.7056 5.05843 12.7056 5.00866Z" fill="#FFF5D6"/>
<path d="M27.8261 30.5088C28.2274 30.5039 28.6045 30.3451 28.8877 30.0619C29.4834 29.4661 29.4835 28.4967 28.8878 27.901C28.2921 27.3054 27.3227 27.3053 26.727 27.901C26.511 28.1169 26.1611 28.1169 25.9452 27.901L23.8907 25.6641C23.3402 25.9285 22.9279 26.2021 22.4071 26.593H22.3008V26.8021L24.6724 29.1738C24.8883 29.3897 24.8883 29.7397 24.6724 29.9556C24.3838 30.2442 24.2249 30.6279 24.2249 31.036C24.2249 31.4441 24.3838 31.8278 24.6724 32.1164C24.961 32.405 25.3447 32.5639 25.7528 32.5639C26.1609 32.5639 26.5446 32.405 26.8332 32.1164C27.1165 31.8331 27.2752 31.4561 27.2801 31.0548C27.2837 30.7548 27.5261 30.5124 27.8261 30.5088Z" fill="#FFF5D6"/>
<path d="M2.33373 7.63261C1.93234 7.63753 1.55534 7.7963 1.27209 8.07955C0.676399 8.67529 0.676288 9.64467 1.27198 10.2404C1.86767 10.8361 2.8371 10.8361 3.43279 10.2404C3.64877 10.0246 3.99869 10.0246 4.21461 10.2404L6.26912 12.4773C6.81959 12.2129 7.23188 11.9393 7.75271 11.5484L7.85901 11.5484L7.85901 11.3393L5.48736 8.96761C5.27149 8.75169 5.27149 8.40166 5.48736 8.18579C5.77597 7.89718 5.9349 7.51354 5.9349 7.10541C5.9349 6.69729 5.77597 6.31365 5.48736 6.02503C5.1988 5.73642 4.81511 5.57749 4.40698 5.57749C3.99885 5.57749 3.61521 5.73642 3.3266 6.02503C3.04329 6.30834 2.88459 6.68535 2.87967 7.08656C2.87607 7.38662 2.63373 7.62897 2.33373 7.63261Z" fill="#FFF5D6"/>
<path d="M3.07266 30.497C3.02087 30.8951 3.12482 31.2907 3.36526 31.6111C3.87095 32.2849 4.83061 32.4219 5.50442 31.9162C6.17823 31.4106 6.31513 30.4509 5.80943 29.7771C5.62627 29.5328 5.67566 29.1864 5.91979 29.0031L8.42438 27.2849C8.24033 26.7026 8.02766 26.2558 7.7142 25.685L7.7292 25.5798L7.52212 25.5503L4.83944 27.5634C4.59521 27.7466 4.24869 27.6972 4.06545 27.453C3.82047 27.1266 3.46311 26.9151 3.05906 26.8575C2.65502 26.7999 2.25279 26.9031 1.92633 27.148C1.59987 27.393 1.38838 27.7504 1.33077 28.1544C1.27316 28.5585 1.37634 28.9607 1.62132 29.2872C1.8618 29.6076 2.21263 29.818 2.60914 29.8795C2.90568 29.9254 3.11139 30.1995 3.07266 30.497Z" fill="#FFF5D6"/>
<path d="M32.2795 7.75471C32.3313 7.35665 32.2273 6.96101 31.9869 6.64061C31.4812 5.96679 30.5216 5.82985 29.8478 6.33549C29.1739 6.84113 29.037 7.80085 29.5427 8.47467C29.7259 8.71895 29.6765 9.06536 29.4324 9.24866L26.9278 10.9668C27.1118 11.5491 27.3245 11.9959 27.638 12.5667L27.623 12.6719L27.8301 12.7015L30.5127 10.6883C30.757 10.5051 31.1035 10.5545 31.2867 10.7987C31.5317 11.1251 31.8891 11.3366 32.2931 11.3942C32.6971 11.4519 33.0994 11.3487 33.4258 11.1037C33.7523 10.8588 33.9638 10.5013 34.0214 10.0973C34.079 9.69326 33.9758 9.29103 33.7309 8.96456C33.4904 8.6441 33.1395 8.43377 32.743 8.37226C32.4465 8.32635 32.2408 8.05222 32.2795 7.75471Z" fill="#FFF5D6"/>
</svg>
