<svg width="60" height="53" viewBox="0 0 60 53" fill="none" xmlns="http://www.w3.org/2000/svg">
<g style="mix-blend-mode:soft-light" opacity="0.3">
<path d="M29.8015 46.2419C29.2006 49.5751 26.2995 52 22.9125 52L7.03569 52C3.1585 52 0.0198824 48.8485 0.0357594 44.9713L0.191367 6.97134C0.207153 3.11657 3.33651 -2.32636e-07 7.19131 2.15675e-07L29.7628 2.84072e-06C34.1259 3.34814e-06 37.4258 3.94802 36.6518 8.24188L29.8015 46.2419Z" fill="white"/>
<path d="M28.266 35.9491C28.4771 36.9647 28.6881 37.9802 28.4771 38.9957L19.6302 52.1818L50.6406 51.7121C50.6406 51.7121 57.6117 49.9816 58.6599 42.0805C59.1706 38.2308 60.3503 25.794 57.3952 22.5444C55.2844 20.3103 55.4955 17.873 56.3398 15.4358C56.7619 14.4203 57.1841 13.4048 57.6062 12.1862C57.3951 12.1862 57.3952 11.9831 57.1841 11.9831C56.5508 12.9986 55.7065 14.0141 55.2844 15.2327C54.0179 18.2792 54.0179 21.3258 55.0733 24.3723C55.4954 25.5909 55.2843 26.6064 54.6511 27.6219C54.0178 28.6375 52.7514 29.0437 51.4849 28.6375C50.4295 28.2313 49.7963 27.4188 50.0073 26.4033C50.4295 24.5754 51.0627 22.7475 51.4849 21.1227C52.1181 19.0916 52.9625 17.0606 52.9625 15.0296C53.1736 10.3582 51.2738 6.29619 48.3187 2.64034C47.4743 1.62483 46.419 0.812421 45.5746 1.14441e-05L45.3635 0.203115C45.5746 0.60932 45.9968 1.21862 46.2079 1.62483C47.0522 3.24965 48.1076 4.67137 48.7409 6.49929C49.7963 9.13962 49.5851 11.9831 48.1076 14.4203C47.2632 16.0451 45.7857 16.6544 44.097 16.2482C41.9862 15.6389 40.7198 14.0141 41.353 11.5768C41.7752 9.74893 42.4084 7.92101 43.0416 6.29619C41.5641 7.71791 40.2976 9.34273 39.2422 11.1706C36.9203 15.6389 37.1314 20.1072 38.82 24.5754C39.6643 26.8095 40.5087 29.2468 41.1419 31.4809C41.5641 33.5119 41.353 35.5429 39.4533 36.7616C37.3425 38.1833 36.2871 37.574 35.8649 35.5429C35.6538 34.7305 35.4427 33.715 35.6538 32.9026C36.076 30.4654 35.4428 28.4344 34.1763 26.4033C33.1209 24.7785 32.0655 23.1537 31.8544 21.1227C31.6433 21.5289 31.2211 21.732 31.2211 22.1382C30.7989 23.763 31.4322 24.9816 31.8544 26.4033C32.2765 27.6219 32.6987 29.0437 32.9098 30.2623C33.1209 31.4809 32.2765 32.2933 31.0101 32.2933C29.7436 32.2933 28.8993 31.684 28.8993 30.2623C28.8993 29.2468 29.3214 28.0282 29.3214 27.0126C27.4216 28.2313 26.5773 29.653 26.9995 31.8871C27.4216 33.3088 28.0549 34.5274 28.266 35.9491Z" fill="white"/>
</g>
</svg>
