<svg width="375" height="51" viewBox="0 0 375 51" fill="none" xmlns="http://www.w3.org/2000/svg">
<path d="M26.7489 28.7484L-12.3807 25.5539L-10.7727 0.758789L456.638 0.758723L453.958 38.9402L441.086 35.2894L437.197 31.9428L430.225 35.2894L416.682 35.2894L414.134 33.7682L398.446 35.2894L394.826 50.1969L389.73 38.9402L379.54 31.9428L371.763 38.9402L357.55 35.2894C354.063 34.7823 349.127 33.4031 346.553 31.9428C343.335 30.1174 336.899 33.7682 334.619 33.7682C332.796 33.7682 327.867 29.7625 325.9 30.2695L315.039 35.2894C315.039 35.2894 301.309 27.5314 300.021 27.5314C298.734 27.5314 284.87 38.9402 284.87 38.9402L272.802 27.5314L261.27 27.5314L249.605 30.2695L244.375 42.1347L236.733 30.2695L228.821 35.2894L221.178 31.9428L214.072 35.2894L210.451 28.7484L207.631 31.9428L201.999 30.2695L184.3 31.9428L177.729 33.7682L170.489 28.7484L165.125 42.1347L153.996 28.7484L143.94 25.5539L116.995 28.7484L100.502 25.5539L86.1547 28.7484L78.914 25.5539L70.0643 38.9402L52.8799 31.9428L44.9736 38.9402L39.7474 31.9429L33.1811 35.2894L33.1811 42.1347L33.1811 50.1969L29.027 40.8438L26.7489 28.7484Z" fill="#05071A"/>
<path opacity="0.5" d="M14.3532 33.4774L-24.1727 31.8833L-22.5895 19.5098L437.61 19.5097L434.971 38.5634L422.297 36.7415L418.469 35.0715L411.604 36.7415L398.27 36.7415L395.762 35.9824L380.316 36.7415L376.751 44.1808L371.734 38.5634L361.701 35.0715L354.044 38.5634L340.05 36.7415C336.618 36.4885 331.758 35.8002 329.223 35.0715C326.055 34.1605 319.718 35.9824 317.473 35.9824C315.678 35.9824 310.825 33.9834 308.889 34.2364L298.196 36.7415C298.196 36.7415 284.677 32.8701 283.41 32.8701C282.142 32.8701 268.492 38.5634 268.492 38.5634L256.61 32.8701L245.256 32.8701L233.771 34.2365L228.622 40.1575L221.097 34.2365L213.308 36.7415L205.783 35.0715L198.786 36.7415L195.222 33.4774L192.444 35.0715L186.9 34.2365L169.473 35.0715L163.004 35.9824L155.875 33.4774L150.595 40.1575L139.637 33.4774L129.736 30.1033L125.109 35.0715L116.131 32.8701L109.431 34.2365L103.207 33.4774L96.1641 37.7623L86.9684 31.8832L72.8424 33.4774L65.7135 31.8832L57.0003 38.5634L40.081 35.0715L32.2967 38.5634L27.1511 35.0715L20.6862 36.7415L20.6862 40.1575L20.6862 44.1808L16.5961 39.5133L14.3532 33.4774Z" fill="#05071A"/>
</svg>
